<svg xmlns="http://www.w3.org/2000/svg" viewBox="0 0 64 64">
  <g fill="none" stroke="none" stroke-width="2.6" stroke-linecap="round" stroke-linejoin="round">
    <path d="M28 25c-7 2-14-2-17-8-2-5 0-10 4-13 0 7 5 13 12 14 3 0 5 0 8-1-1 4-4 7-7 8z" fill="#FFF2A8"/>
    <path d="M45 10l1 3 3 1-3 1-1 3-1-3-3-1 3-1 1-3z" fill="#FFF8D6"/>
    <path d="M18 47h30c6 0 10-4 10-9s-4-9-9-9c-2-7-8-11-16-10-6 1-10 5-12 11h-3c-6 0-10 4-10 9s4 8 10 8z" fill="#6C7DFF"/>
    <path d="M27 36c2 2 5 3 9 3s7-1 9-3" stroke="#B7C0FF" stroke-width="1.8"/>
  </g>
</svg>
