<svg xmlns="http://www.w3.org/2000/svg" viewBox="0 0 64 64">
  <g fill="none" stroke="none" stroke-width="2.8" stroke-linecap="round" stroke-linejoin="round">
    <path d="M24 20c-6 1-11-2-13-7-2-4 0-8 3-11 0 6 5 11 10 12 3 0 5 0 7-1-1 3-3 6-7 7z" fill="#FFF2A8"/>
    <path d="M18 39h31c5 0 9-4 9-8s-4-8-9-8c-2-6-7-9-14-9-6 0-11 4-13 9h-4c-5 0-9 4-9 8s4 8 9 8z" fill="#6C7DFF"/>
    <path d="M24 46v8M20 50h8M21 47l6 6M27 47l-6 6M43 46v8M39 50h8M40 47l6 6M46 47l-6 6" stroke="#00C2FF"/>
  </g>
</svg>
